<svg xmlns="http://www.w3.org/2000/svg" width="11.172" height="17.333" viewBox="0 0 11.172 17.333">
  <path id="_006-tumblr" data-name="006-tumblr" d="M3.047,0V1.526h0A2.542,2.542,0,0,1,.508,4.063H0V8.125H2.031v3.622a5.592,5.592,0,0,0,5.586,5.586h3.555V12.255H7.617a.508.508,0,0,1-.508-.508V8.125h4.063V4.063H7.109V0Zm7.109,5.078V7.109H6.094v4.638a1.525,1.525,0,0,0,1.523,1.523h2.539v3.047H7.617a4.576,4.576,0,0,1-4.57-4.57V7.109H1.016V5.042a3.544,3.544,0,0,0,1.861-.87h0A3.556,3.556,0,0,0,4.063,1.523V1.016H6.094V5.078Zm0,0" fill="#fff"/>
</svg>
