<svg xmlns="http://www.w3.org/2000/svg" width="17.194" height="17.194" viewBox="0 0 17.194 17.194">
  <path id="_021-facebook" data-name="021-facebook" d="M2.519,17.194H8.127V11.082H6.112V9.067H8.127V6.549A2.522,2.522,0,0,1,10.646,4.03h2.519V6.045H11.149a1.009,1.009,0,0,0-1.007,1.007V9.067h2.932l-.336,2.015h-2.6v6.112h4.534a2.522,2.522,0,0,0,2.519-2.519V2.519A2.522,2.522,0,0,0,14.676,0H2.519A2.522,2.522,0,0,0,0,2.519V14.676A2.522,2.522,0,0,0,2.519,17.194ZM1.007,2.519A1.513,1.513,0,0,1,2.519,1.007H14.676a1.513,1.513,0,0,1,1.511,1.511V14.676a1.513,1.513,0,0,1-1.511,1.511H11.149v-4.1h2.442l.672-4.03H11.149V7.052h3.022V3.022H10.646A3.53,3.53,0,0,0,7.12,6.549V8.06H5.1v4.03H7.12v4.1h-4.6a1.513,1.513,0,0,1-1.511-1.511Zm0,0" fill="#fb1901"/>
</svg>
