<svg id="_025-instagram" data-name="025-instagram" xmlns="http://www.w3.org/2000/svg" width="18.194" height="18.194" viewBox="0 0 18.194 18.194">
  <path id="路径_6876" data-name="路径 6876" d="M2.665,18.194H15.529a2.668,2.668,0,0,0,2.665-2.665V2.665A2.668,2.668,0,0,0,15.529,0H2.665A2.668,2.668,0,0,0,0,2.665V15.529A2.668,2.668,0,0,0,2.665,18.194ZM1.066,2.665a1.6,1.6,0,0,1,1.6-1.6H15.529a1.6,1.6,0,0,1,1.6,1.6V15.529a1.6,1.6,0,0,1-1.6,1.6H2.665a1.6,1.6,0,0,1-1.6-1.6Zm0,0" fill="#fff"/>
  <path id="路径_6877" data-name="路径 6877" d="M125.8,130.595a4.8,4.8,0,1,0-4.8-4.8A4.8,4.8,0,0,0,125.8,130.595Zm0-8.529a3.731,3.731,0,1,1-3.731,3.731A3.735,3.735,0,0,1,125.8,122.066Zm0,0" transform="translate(-116.7 -116.7)" fill="#fff"/>
  <path id="路径_6878" data-name="路径 6878" d="M362.6,64.2a1.6,1.6,0,1,0-1.6-1.6A1.6,1.6,0,0,0,362.6,64.2Zm0-2.132a.533.533,0,1,1-.533.533A.534.534,0,0,1,362.6,62.066Zm0,0" transform="translate(-348.172 -58.832)" fill="#fff"/>
</svg>
