<svg id="_045-linkedin" data-name="045-linkedin" xmlns="http://www.w3.org/2000/svg" width="18.194" height="18.194" viewBox="0 0 18.194 18.194">
  <path id="路径_6879" data-name="路径 6879" d="M15.529,0H2.665A2.668,2.668,0,0,0,0,2.665V15.529a2.668,2.668,0,0,0,2.665,2.665H15.529a2.668,2.668,0,0,0,2.665-2.665V2.665A2.668,2.668,0,0,0,15.529,0Zm1.6,15.529a1.6,1.6,0,0,1-1.6,1.6H2.665a1.6,1.6,0,0,1-1.6-1.6V2.665a1.6,1.6,0,0,1,1.6-1.6H15.529a1.6,1.6,0,0,1,1.6,1.6Zm0,0" fill="#fff"/>
  <path id="路径_6880" data-name="路径 6880" d="M91,217.534h3.2V210H91Zm1.066-6.468h1.066v5.4H92.066Zm0,0" transform="translate(-87.766 -202.537)" fill="#fff"/>
  <path id="路径_6881" data-name="路径 6881" d="M215.267,210h0a3.192,3.192,0,0,0-1.066.181V210H211v7.534h3.2v-3.8a.533.533,0,0,1,1.066,0v3.8h3.2v-4.169a3.35,3.35,0,0,0-3.2-3.365Zm2.129,6.468H216.33v-2.736a1.6,1.6,0,0,0-3.2,0v2.736h-1.066v-5.4h1.066v1.067l.853-.641a2.113,2.113,0,0,1,1.279-.426h0a2.279,2.279,0,0,1,2.13,2.3Zm0,0" transform="translate(-203.502 -202.537)" fill="#fff"/>
  <path id="路径_6882" data-name="路径 6882" d="M91,93.2h3.2V90H91Zm1.066-2.132h1.066v1.066H92.066Zm0,0" transform="translate(-87.766 -86.802)" fill="#fff"/>
</svg>
