<svg id="icons8-visa-credit-card" xmlns="http://www.w3.org/2000/svg" width="64.312" height="51.449" viewBox="0 0 64.312 51.449">
  <path id="路径_19" data-name="路径 19" d="M54.09,24.9l1.294,6.758H51.515Zm12.222-14.47V49.018a6.444,6.444,0,0,1-6.431,6.431H8.431A6.444,6.444,0,0,1,2,49.018V10.431A6.444,6.444,0,0,1,8.431,4h51.45A6.444,6.444,0,0,1,66.312,10.431ZM16.47,29.4l-1.608-8.039a2.767,2.767,0,0,0-2.575-1.608H5.216S14.536,22.653,16.47,29.4Zm2.575,8.039,6.745-18h-4.5L17.111,32.3a6.708,6.708,0,0,1-.314-1.608,16.68,16.68,0,0,0-6.117-7.725l3.542,14.47Zm13.5-17.686H27.725L25.15,37.764h4.509ZM45.084,31.659c0-4.509-6.431-4.823-6.431-7.084,0-.955.653-1.922,2.9-1.922a6.145,6.145,0,0,1,3.216,1.281l.967-3.856a12.772,12.772,0,0,0-4.183-.967c-4.823,0-7.072,2.575-7.072,5.464,0,5.791,6.431,4.823,6.431,7.725,0,.641-.327,1.608-2.9,1.608a10.972,10.972,0,0,1-4.5-.967L32.875,36.8a10,10,0,0,0,4.823.967C40.587,38.09,45.084,35.515,45.084,31.659Zm15.764,5.778-3.542-18H52.482l-7.4,18h4.509l.967-2.562h5.778l.653,2.562Z" transform="translate(-2 -4)" fill="#0872ba"/>
</svg>
