<svg xmlns="http://www.w3.org/2000/svg" width="60.173" height="54.156" viewBox="0 0 60.173 54.156">
  <g id="icons8-black-board" transform="translate(0)">
    <path id="路径_47" data-name="路径 47" d="M11.026,3A6.122,6.122,0,0,0,6.7,4.692,6.122,6.122,0,0,0,5.009,9.017v6.017h6.017V9.017H53.147v36.1h6.017V9.017a6.122,6.122,0,0,0-1.692-4.325A6.122,6.122,0,0,0,53.147,3Zm0,15.043a6.017,6.017,0,1,0,6.017,6.017A6.014,6.014,0,0,0,11.026,18.043ZM32.933,21.9l-8.65,8.65-7.616,2.539H2V57.156H20.052v-18.9l6.958-2.351a2.884,2.884,0,0,0,1.222-.658l9.026-9.026ZM23.061,48.13v6.017H62.173V48.13Z" transform="translate(-2 -3)" fill="#045993"/>
  </g>
</svg>
