<svg id="icons8-exam" xmlns="http://www.w3.org/2000/svg" width="43.563" height="54.453" viewBox="0 0 43.563 54.453">
  <path id="路径_70" data-name="路径 70" d="M9.445,2A5.442,5.442,0,0,0,4,7.445V51.008a5.442,5.442,0,0,0,5.445,5.445H42.117a5.442,5.442,0,0,0,5.445-5.445V11.785L37.778,2Zm0,5.445H31.227V18.336H42.117V51.008H9.445ZM36.672,8.551l4.339,4.339H36.672ZM16.507,18.336l-4.339,4.339V45.563h5.445V37.395h2.723v8.168h5.445V22.675l-4.339-4.339Zm2.212,5.445h.51l1.106,1.106v7.062H17.613V24.887ZM31.227,26.5v2.723H28.5v5.445h2.723v2.723h5.445V34.672h2.723V29.227H36.672V26.5Z" transform="translate(-4 -2)" fill="#0872ba"/>
</svg>
