<svg id="icons8-camera-identification" xmlns="http://www.w3.org/2000/svg" width="64.312" height="64.212" viewBox="0 0 64.312 64.212">
  <path id="路径_10" data-name="路径 10" d="M24.509,2,18.078,8.431H14.862V5.216H8.431V8.431A6.444,6.444,0,0,0,2,14.862V40.587a6.444,6.444,0,0,0,6.431,6.431H25.916a15.978,15.978,0,0,1-1.407-6.431,15.46,15.46,0,0,1,.2-1.708A12.81,12.81,0,1,1,43.4,24.811a16.131,16.131,0,0,1,10.049,6.23V14.862a6.444,6.444,0,0,0-6.431-6.431H43.8L37.372,2ZM11.647,11.647a3.216,3.216,0,1,1-3.216,3.216A3.222,3.222,0,0,1,11.647,11.647ZM30.94,18.078a9.6,9.6,0,0,0-5.527,17.485A15.844,15.844,0,0,1,39.984,24.61,9.605,9.605,0,0,0,30.94,18.078Zm9.647,9.647a12.862,12.862,0,1,0,7.939,23.012l1.708,1.708v2.311L61.69,66.212l4.622-4.421L54.756,50.234H52.445l-1.708-1.708a12.89,12.89,0,0,0-10.149-20.8Zm0,6.431a6.431,6.431,0,1,1-6.431,6.431A6.444,6.444,0,0,1,40.587,34.156Z" transform="translate(-2 -2)" fill="#0872ba"/>
</svg>
