<svg xmlns="http://www.w3.org/2000/svg" width="57.729" height="60.174" viewBox="0 0 57.729 60.174">
  <g id="icons8-students" transform="translate(0)">
    <path id="路径_9" data-name="路径 9" d="M22.433,2A6.017,6.017,0,1,0,28.45,8.017,6.014,6.014,0,0,0,22.433,2ZM5.6,15.633,2.313,33.967,8.236,35l3.291-18.334Zm12.035,1.41a2.965,2.965,0,0,0-3.009,2.445L11.9,34.531c-.6,2.1.306,3.232,1.5,5.641l6.3,10.248v-.47l5.735,12.223h6.017L20.553,37.916l.094-1.034,1.6-7.146.188,1.786V31.8h.094a7.918,7.918,0,0,0,1.128,3.479l.188.282.188.188,5.359,6.675,4.7-3.855-5.265-6.3-.188-.282c-.059-.129-.188-.658-.188-.47v-.376l-.94-8.086v-.47l-.188-.376a8.614,8.614,0,0,0-7.9-5.171Zm34.318,0a4.513,4.513,0,1,0,4.513,4.513A4.514,4.514,0,0,0,51.955,17.043ZM38.416,27.1,35.972,40.925l6.017,1.034L44.34,28.044Zm9.872,1.974a1.962,1.962,0,0,0-2.068,1.786l-2.162,10.53c-.306,1.5.317,2.727,1.222,4.231l4.8,7.71v.094l4.231,8.744h5.171l-8.65-19.368.282-1.692a7.548,7.548,0,0,0,1.128,2.068l4.231,4.889,3.573-3.009-3.949-4.889c0-.306-.282-.259-.282-.564l-.564-6.017-.282-.564A6.643,6.643,0,0,0,49.6,29.172l-.094-.094ZM11.621,42.617,9.458,52.583l-5.077,9.59H10.4l3.573-6.958,1.5-6.581ZM43.494,47.13l-2.068,7.8-3.949,7.24h5.453l2.633-4.8,1.5-4.8Z" transform="translate(-2.313 -2)" fill="#0872ba"/>
  </g>
</svg>
