<svg xmlns="http://www.w3.org/2000/svg" width="59" height="53.1" viewBox="0 0 59 53.1">
  <g id="icons8-invoice" transform="translate(-2 -3)">
    <path id="路径_73" data-name="路径 73" d="M10.85,3A8.9,8.9,0,0,0,2,11.85v35.4a8.9,8.9,0,0,0,8.85,8.85h41.3A8.9,8.9,0,0,0,61,47.25V11.85A8.9,8.9,0,0,0,52.15,3Zm0,5.9h41.3a2.941,2.941,0,0,1,2.95,2.95v35.4a2.941,2.941,0,0,1-2.95,2.95H10.85A2.941,2.941,0,0,1,7.9,47.25V11.85A2.941,2.941,0,0,1,10.85,8.9Zm2.95,5.9v5.9H34.45V14.8Zm29.5,0v5.9h5.9V14.8ZM13.8,26.6v5.9H34.45V26.6Zm29.5,0v5.9h5.9V26.6ZM34.45,38.4v5.9H49.2V38.4Z" transform="translate(0 0)" fill="#0872ba"/>
  </g>
</svg>
