<svg id="icons8-sell" xmlns="http://www.w3.org/2000/svg" width="64.039" height="64.273" viewBox="0 0 64.039 64.273">
  <path id="路径_17" data-name="路径 17" d="M17.87,2a6.444,6.444,0,0,0-6.431,6.431V27.725a6.444,6.444,0,0,0,6.431,6.431H50.026a6.444,6.444,0,0,0,6.431-6.431V8.431A6.444,6.444,0,0,0,50.026,2ZM24.3,8.431H43.6v3.216H24.3Zm22.61,28.94a14.588,14.588,0,0,0-5.527,2.613,51.081,51.081,0,0,1-6.13,3.517c.327.327,1.909.3,1.909.3h.3a6.137,6.137,0,0,1,6.13,6.13v.6a6.137,6.137,0,0,1-6.13,6.13H30.733c-5.791,0-11.255-5.828-11.255-5.828s6.758,2.613,11.255,2.613h6.431a3.223,3.223,0,0,0,.3-6.431c-6.1-.641-8.642-3.216-8.642-3.216a87.427,87.427,0,0,0-7.436-5.125C14.63,34.822,2.094,42.8,2.094,42.8l8.34,18.389a12.028,12.028,0,0,1,10.049-.3c3.856,1.608,6.092,2.839,9.948,4.12,5.464,1.934,7.411,1.671,10.953-.9,3.216-2.248,18.653-14.47,20.9-16.078,3.216-2.889,4.823-5.2,3.216-7.135a6.338,6.338,0,0,0-3.618-1.608C59.949,38.954,49.7,37.7,48.419,37.372A5.05,5.05,0,0,0,46.911,37.372Z" transform="translate(-2.094 -2)" fill="#0872ba"/>
</svg>
