<svg id="icons8-education-2" xmlns="http://www.w3.org/2000/svg" width="54.453" height="54.453" viewBox="0 0 54.453 54.453">
  <path id="路径_59" data-name="路径 59" d="M7.445,2A5.442,5.442,0,0,0,2,7.445V42.84a5.442,5.442,0,0,0,5.445,5.445H21.059v8.168l8.168-8.168,8.168,8.168V48.285H51.008a5.442,5.442,0,0,0,5.445-5.445V7.445A5.442,5.442,0,0,0,51.008,2Zm0,5.445H51.008V42.84H37.395V37.735A8.4,8.4,0,0,0,30.843,29.4a8.164,8.164,0,0,0-9.785,8V42.84H7.445Zm5.445,5.445v5.445H45.563V12.891Zm0,8.168V26.5H45.563V21.059ZM29.227,34.672A2.723,2.723,0,1,1,26.5,37.395,2.728,2.728,0,0,1,29.227,34.672Z" transform="translate(-2 -2)" fill="#0872ba"/>
</svg>
