<svg id="icons8-e-learning" xmlns="http://www.w3.org/2000/svg" width="77.174" height="54.665" viewBox="0 0 77.174 54.665">
  <path id="路径_76" data-name="路径 76" d="M12.862,3A6.476,6.476,0,0,0,6.431,9.431V41.587a6.476,6.476,0,0,0,6.431,6.431H0v3.216a6.428,6.428,0,0,0,6.431,6.431H70.743a6.428,6.428,0,0,0,6.431-6.431V48.018H64.312a6.476,6.476,0,0,0,6.431-6.431V9.431A6.476,6.476,0,0,0,64.312,3Zm0,6.431h51.45V41.587H12.862Zm9.647,6.431v6.431H54.665V15.862Zm0,12.862v6.431H48.234V28.725Z" transform="translate(0 -3)" fill="#0872ba"/>
</svg>
