<svg id="icons8-slr-back-side" xmlns="http://www.w3.org/2000/svg" width="56.126" height="50.513" viewBox="0 0 56.126 50.513">
  <path id="路径_25" data-name="路径 25" d="M21.644,3,16.031,8.613H7.613A5.623,5.623,0,0,0,2,14.225V47.9a5.623,5.623,0,0,0,5.613,5.613h44.9A5.623,5.623,0,0,0,58.126,47.9V14.225a5.623,5.623,0,0,0-5.613-5.613H44.094L38.482,3ZM9.016,19.838H34.272a1.323,1.323,0,0,1,1.4,1.4V40.885a1.323,1.323,0,0,1-1.4,1.4H31.2a10.946,10.946,0,0,0-19.118,0H9.016a1.323,1.323,0,0,1-1.4-1.4V21.241A1.323,1.323,0,0,1,9.016,19.838Zm39.288,0a4.209,4.209,0,1,1-4.209,4.209A4.313,4.313,0,0,1,48.3,19.838Zm-26.66,2.806a5.613,5.613,0,1,0,5.613,5.613A5.609,5.609,0,0,0,21.644,22.644ZM48.3,33.869a4.209,4.209,0,1,1-4.209,4.209A4.313,4.313,0,0,1,48.3,33.869Z" transform="translate(-2 -3)" fill="#0872ba"/>
</svg>
