<svg id="icons8-slr-camera" xmlns="http://www.w3.org/2000/svg" width="40.465" height="32.372" viewBox="0 0 40.465 32.372">
  <path id="路径_41" data-name="路径 41" d="M20.209,4,16.163,8.047H12.116V6.023H6.047V8.047A4.054,4.054,0,0,0,2,12.093V32.326a4.054,4.054,0,0,0,4.047,4.047H38.419a4.054,4.054,0,0,0,4.047-4.047V12.093a4.054,4.054,0,0,0-4.047-4.047H36.4L32.349,4ZM9.081,9.058a2.023,2.023,0,1,1-2.023,2.023A2.027,2.027,0,0,1,9.081,9.058Zm17.2,3.035A10.116,10.116,0,1,1,16.163,22.209,10.116,10.116,0,0,1,26.279,12.093Zm0,4.047a6.07,6.07,0,1,0,6.07,6.07A6.071,6.071,0,0,0,26.279,16.14Z" transform="translate(-2 -4)" fill="#42a9df"/>
</svg>
