<svg id="icons8-slr-camera" xmlns="http://www.w3.org/2000/svg" width="20.139" height="16.111" viewBox="0 0 20.139 16.111">
  <path id="路径_41" data-name="路径 41" d="M11.063,4,9.049,6.014H7.035V5.007H4.014V6.014A2.018,2.018,0,0,0,2,8.028V18.1a2.018,2.018,0,0,0,2.014,2.014H20.125A2.018,2.018,0,0,0,22.139,18.1V8.028a2.018,2.018,0,0,0-2.014-2.014H19.118L17.1,4ZM5.524,6.517A1.007,1.007,0,1,1,4.517,7.524,1.009,1.009,0,0,1,5.524,6.517Zm8.559,1.51a5.035,5.035,0,1,1-5.035,5.035A5.034,5.034,0,0,1,14.083,8.028Zm0,2.014A3.021,3.021,0,1,0,17.1,13.063,3.022,3.022,0,0,0,14.083,10.042Z" transform="translate(-2 -4)" fill="#fff"/>
</svg>
