<svg id="icons8-professional-certification" xmlns="http://www.w3.org/2000/svg" width="49.263" height="54.538" viewBox="0 0 49.263 54.538">
  <path id="路径_16" data-name="路径 16" d="M27.079,1.969a1.993,1.993,0,0,0-1.446.6L21.8,6.138l-4.339-.851A2.049,2.049,0,0,0,15,6.989l-.851,4.85L9.551,14.051A1.9,1.9,0,0,0,8.7,16.773l2.212,4.339L8.7,25.452a2.129,2.129,0,0,0,.851,2.723l4.595,2.212L15,35.236a2.191,2.191,0,0,0,2.467,1.7l5.105-.851L26.4,39.661a2.112,2.112,0,0,0,2.978,0L33.2,36.087l5.19.851a2.191,2.191,0,0,0,2.467-1.7l.766-4.85,4.68-2.212a1.877,1.877,0,0,0,.766-2.723L44.1,21.113l2.212-4.339a1.9,1.9,0,0,0-.851-2.723l-4.594-2.212-.851-4.85a2.191,2.191,0,0,0-2.467-1.7l-5.1.851L28.61,2.564A2.189,2.189,0,0,0,27.079,1.969ZM11.423,32.258,3,49.19l9.785-1.361,4.935,8.679,7.062-14.464-.51-.511-2.723-2.467-3.829.6a5.069,5.069,0,0,1-5.445-3.829l-.6-3.573Zm32.162,0-.851,3.573a4.887,4.887,0,0,1-4.595,3.829h-.6l-3.744-.6-2.723,2.467-.6.511,7.062,14.464,4.935-8.423,9.785,1.361Z" transform="translate(-3 -1.969)" fill="#0872ba"/>
</svg>
