<svg id="icons8-books" xmlns="http://www.w3.org/2000/svg" width="56.126" height="56.126" viewBox="0 0 56.126 56.126">
  <path id="路径_67" data-name="路径 67" d="M7.613,2A6.09,6.09,0,0,0,2,7.613V41.288a8.464,8.464,0,0,0,8.419,8.419h5.613V44.094H10.419a2.806,2.806,0,0,1,0-5.613h5.613V13.225a6.09,6.09,0,0,1,5.613-5.613H41.288V2ZM24.45,10.419a6.09,6.09,0,0,0-5.613,5.613V49.707a8.464,8.464,0,0,0,8.419,8.419H58.126V52.513H27.257a2.806,2.806,0,0,1,0-5.613H58.126V10.419Zm5.613,8.419H49.707V24.45H30.063Z" transform="translate(-2 -2)" fill="#045993"/>
</svg>
