<svg xmlns="http://www.w3.org/2000/svg" width="54.453" height="59.899" viewBox="0 0 54.453 59.899">
  <path id="icons8-add-book" d="M9.445,2A5.446,5.446,0,0,0,4,7.445v40.84a8.178,8.178,0,0,0,8.168,8.168H23.282a21.675,21.675,0,0,1-2.228-5.445H12.168a2.723,2.723,0,0,1,0-5.445h8.168A21.692,21.692,0,0,1,47.563,24.5V2Zm8.168,10.891H39.395v5.445H17.613Zm24.5,16.336A16.336,16.336,0,1,0,58.453,45.563,16.384,16.384,0,0,0,42.117,29.227Zm-2.723,8.168H44.84V42.84h5.445v5.445H44.84v5.445H39.395V48.285H33.949V42.84h5.445Z" transform="translate(-4 -2)" fill="#0872ba"/>
</svg>
