<svg id="icons8-contract" xmlns="http://www.w3.org/2000/svg" width="20.156" height="20.107" viewBox="0 0 20.156 20.107">
  <path id="路径_1" data-name="路径 1" d="M18.111,2.031A3.986,3.986,0,0,0,15.279,3.2L6.94,11.566,3.2,15.279l-.031.031c-.016.016-.016.047-.031.063a3.874,3.874,0,0,0,0,5.475c.016.016.016.047.031.063l.031.031a4.092,4.092,0,0,0,.6.5c.008,0,.024,0,.031,0a3.859,3.859,0,0,0,1.385.6c.02,0,.043,0,.063,0a4.007,4.007,0,0,0,.755.094,4.007,4.007,0,0,0,.755-.094,3.947,3.947,0,0,0,.755-.22,3.8,3.8,0,0,0,.692-.378,3.97,3.97,0,0,0,.629-.5L12.573,17.2l1.762-1.762c2.281,3.115,3.7,3.682,5.381,3.682a9.852,9.852,0,0,1-.409-2.517,9.493,9.493,0,0,0,2.832-.5,11.923,11.923,0,0,1-4.468-3.965l3.367-3.367a3.912,3.912,0,0,0-.094-5.57c-.008-.008-.024.008-.031,0A3.97,3.97,0,0,0,18.111,2.031Zm0,1.951a2.007,2.007,0,0,1,1.416.629l.031.031a1.891,1.891,0,0,1,.063,2.675L17.073,9.867a2.771,2.771,0,0,0-.881-1.92,2.962,2.962,0,0,0-1.919-.881L16.7,4.612A2.007,2.007,0,0,1,18.111,3.982Zm-6.86,6.1a2.771,2.771,0,0,1,1.919.881,3.27,3.27,0,0,1,.85,1.951l-2.864,2.864L9.9,17.073a4.008,4.008,0,0,0-2.832-2.832l1.29-1.259ZM6.028,16.1a2.016,2.016,0,0,1,1.133,3.682c-.012.008-.02.024-.031.031a1.959,1.959,0,0,1-.315.157c-.012.008-.02.028-.031.031a2.073,2.073,0,0,1-.755.126,1.983,1.983,0,0,1-1.385-.566.237.237,0,0,1-.031-.031,2.4,2.4,0,0,1-.252-.283c0-.008,0-.024,0-.031a2.152,2.152,0,0,1,0-2.234,1.908,1.908,0,0,1,.252-.283l.031-.031.252-.22A2.028,2.028,0,0,1,6.028,16.1Z" transform="translate(-2 -2.031)" fill="#fff"/>
</svg>
