<svg id="icons8-bank-cards" xmlns="http://www.w3.org/2000/svg" width="63.21" height="57.193" viewBox="0 0 63.21 57.193">
  <path id="路径_46" data-name="路径 46" d="M8.017,3A6.06,6.06,0,0,0,2,9.017V36.1a6.045,6.045,0,0,0,5.077,5.923l-.47,2.445a6.046,6.046,0,0,0,4.607,7.146l41.275,8.462a6.109,6.109,0,0,0,7.146-4.7l5.453-26.514a6.109,6.109,0,0,0-4.7-7.146l-4.231-.846V9.017A6.06,6.06,0,0,0,50.139,3Zm0,6.017H50.139v6.017H8.017Zm0,12.035H50.139V36.1H8.017Zm48.139,6.017,3.009.564-1.222,5.923-1.786-.376ZM55.31,39.1l1.41.282L53.711,54.147,12.436,45.685l.752-3.573h36.95A5.992,5.992,0,0,0,55.31,39.1Z" transform="translate(-2 -3)" fill="#0872ba"/>
</svg>
