<svg id="icons8-shop" xmlns="http://www.w3.org/2000/svg" width="54.453" height="54.453" viewBox="0 0 54.453 54.453">
  <path id="路径_24" data-name="路径 24" d="M11.785,2A5.564,5.564,0,0,0,6.339,6.084C4.978,12.891,2,25.143,2,26.5a5.456,5.456,0,0,0,5.445,5.445,4.779,4.779,0,0,0,3.829-1.872,10.221,10.221,0,0,0,5.7,1.872,9.8,9.8,0,0,0,6.551-2.467,7.376,7.376,0,0,0,5.7,2.467,7.376,7.376,0,0,0,5.7-2.467,8.872,8.872,0,0,0,6.551,2.467,10.221,10.221,0,0,0,5.7-1.872,5.2,5.2,0,0,0,3.829,1.872A5.456,5.456,0,0,0,56.453,26.5c0-1.361-2.978-13.613-4.339-20.42A5.272,5.272,0,0,0,46.924,2Zm3.829,8.168h8.168l-2.467,12c-.277,2.446-1.893,4.339-4.339,4.339a4.4,4.4,0,0,1-3.829-2.212C13.965,19.665,15.613,10.168,15.613,10.168Zm19.059,0H42.84s1.648,9.5,2.467,14.124A4.4,4.4,0,0,1,41.479,26.5c-2.446,0-4.063-1.893-4.339-4.339ZM4.723,34.672V48.285a8.211,8.211,0,0,0,8.168,8.168H45.563a8.211,8.211,0,0,0,8.168-8.168V34.672H48.285V48.285a2.714,2.714,0,0,1-2.723,2.723H42.84V34.672H31.949V51.008H12.891a2.714,2.714,0,0,1-2.723-2.723V34.672Zm10.891,0V45.563H26.5V34.672Z" transform="translate(-2 -2)" fill="#0872ba"/>
</svg>
