<svg xmlns="http://www.w3.org/2000/svg" width="66.19" height="60.174" viewBox="0 0 66.19 60.174">
  <g id="icons8-small-business" transform="translate(0)">
    <path id="路径_26" data-name="路径 26" d="M7.864,2,7.205,4.068,1.188,22.12,1,22.591v.47a8.992,8.992,0,0,0,3.009,6.675V62.173h9.026V32.087H31.087V62.173H37.1V32.087H55.156V62.173h9.026V29.736a8.992,8.992,0,0,0,3.009-6.675v-.47L67,22.12,60.985,4.068,60.327,2Zm4.325,6.017H56l5.077,15.231a2.91,2.91,0,0,1-2.915,2.821,2.97,2.97,0,0,1-3.009-3.009H49.139a3.009,3.009,0,1,1-6.017,0H37.1a3.009,3.009,0,1,1-6.017,0H25.069a3.009,3.009,0,1,1-6.017,0H13.035a2.97,2.97,0,0,1-3.009,3.009,2.91,2.91,0,0,1-2.915-2.821Zm15.89,33.1a3.009,3.009,0,0,0,0,6.017Zm12.035,0V47.13a3.009,3.009,0,0,0,0-6.017Z" transform="translate(-1 -2)" fill="#0872ba"/>
  </g>
</svg>
