<svg id="icons8-student-male" xmlns="http://www.w3.org/2000/svg" width="64.312" height="64.313" viewBox="0 0 64.312 64.313">
  <path id="路径_8" data-name="路径 8" d="M34.156,2,2,19.686l9.647,5.326V19.987s3.216-5.125,22.509-5.125,22.509,5.125,22.509,5.125v5.024L59.881,23.2V34.156h6.431V19.686Zm0,16.078c-16.078,0-19.294,3.216-19.294,3.216V30.94s3.216-3.216,19.294-3.216S53.45,30.94,53.45,30.94V21.294S50.234,18.078,34.156,18.078Zm0,12.862c-1.683,0-3.178.113-4.622.2,4.12,4.421,12.2,1.583,17.686,2.814a14.834,14.834,0,0,1,.6,4.421c0,.754-.025,1.532-.1,2.311l-.4,2.613,2.512.8a1.3,1.3,0,0,1,.4.9c0,.779-.126,1.294-.8,1.407l-2.412-.4-.8,2.613c-1.934,6.079-7.461,11.255-12.059,11.255S24.032,54.706,22.1,48.626l-.8-2.613-2.412.4c-.678-.113-.8-.628-.8-1.407a2.023,2.023,0,0,1,.3-.9l2.512-.8-.3-2.613c-.075-.779-.1-1.558-.1-2.311a17.154,17.154,0,0,1,.3-3.216c2.135-1.306,3.982-.716,6.431-3.919-6.657.666-10.639,2.236-12.862,3.618a19.615,19.615,0,0,0-.3,3.517c0,.339-.013.666,0,1a7.84,7.84,0,0,0-2.412,5.627,7.572,7.572,0,0,0,2.613,6.029,7.461,7.461,0,0,0,2.412,1.407c2.9,7.022,9.609,13.867,17.485,13.867s14.583-6.846,17.485-13.867a7.461,7.461,0,0,0,2.412-1.407,7.572,7.572,0,0,0,2.613-6.029,7.862,7.862,0,0,0-2.412-5.627c.013-.339,0-.666,0-1a20.956,20.956,0,0,0-.3-3.517C51.051,33.051,45.26,30.94,34.156,30.94Z" transform="translate(-2 -2)" fill="#045993"/>
</svg>
