<svg xmlns="http://www.w3.org/2000/svg" width="42.528" height="77.951" viewBox="0 0 42.528 77.951">
  <g id="noun_Location_2400261" transform="translate(-205 -23)">
    <g id="组_1064" data-name="组 1064" transform="translate(205 23)">
      <path id="路径_6943" data-name="路径 6943" d="M226.215,23a21.306,21.306,0,0,1,21.313,21.313c0,14.987-20.437,41.749-20.437,50.7a.829.829,0,1,1-1.654,0c0-8.953-20.437-35.716-20.437-50.7A21.286,21.286,0,0,1,226.215,23Zm1.46,69.777c7.4.195,13.235,1.946,13.235,4.087,0,2.238-6.52,4.087-14.695,4.087-8.077,0-14.6-1.849-14.6-4.087,0-2.141,5.742-3.893,13.138-4.087a7.2,7.2,0,0,1,.389,2.238,1.119,1.119,0,0,0,2.238,0A10.85,10.85,0,0,1,227.675,92.777Zm-1.46-59.656a11.143,11.143,0,1,1-11.094,11.192A11.131,11.131,0,0,1,226.215,33.121Z" transform="translate(-205 -23)" fill="#fb1901" fill-rule="evenodd"/>
    </g>
  </g>
</svg>
