<svg xmlns="http://www.w3.org/2000/svg" xmlns:xlink="http://www.w3.org/1999/xlink" width="16.502" height="16.5" viewBox="0 0 16.502 16.5">
  <defs>
    <clipPath id="clip-path">
      <path id="路径_6937" data-name="路径 6937" d="M922.749-224.028c-.684-.7-2.63-2.02-3.9-2.02a1.387,1.387,0,0,0-.764.2,4.194,4.194,0,0,1-1.359.708c-.131,0-.272-.117-.581-.384l-.051-.047a16.268,16.268,0,0,1-1.374-1.284l-.084-.089c-.061-.061-.112-.117-.164-.169-.291-.3-.5-.516-1.247-1.359l-.033-.038c-.356-.4-.591-.666-.6-.858s.15-.492.567-1.059a2.318,2.318,0,0,0,.061-2.508A11.417,11.417,0,0,0,911.7-235.1l-.047-.056a2.024,2.024,0,0,0-1.589-.844,2.814,2.814,0,0,0-1.5.544c-.023.014-.047.033-.07.047a3.008,3.008,0,0,0-1.3,1.556c-.267.867-.445,1.992.834,4.331a20.928,20.928,0,0,0,3.7,5.02,22.368,22.368,0,0,0,3.656,3.113,8.5,8.5,0,0,0,4.369,1.889,3.188,3.188,0,0,0,3.014-1.4c1.219-1.472.712-2.372-.019-3.127Z" transform="translate(-907 236)" fill="none" clip-rule="evenodd"/>
    </clipPath>
    <clipPath id="clip-path-2">
      <path id="路径_6936" data-name="路径 6936" d="M0,658H1500V-1147H0Z" transform="translate(0 1147)" fill="none"/>
    </clipPath>
  </defs>
  <g id="组_1045" data-name="组 1045" clip-path="url(#clip-path)">
    <g id="组_1044" data-name="组 1044" transform="translate(-907 -911)" clip-path="url(#clip-path-2)">
      <path id="路径_6935" data-name="路径 6935" d="M902-241h26.5v26.5H902Z" transform="translate(0 1147)" fill="#fb1901"/>
    </g>
  </g>
</svg>
